<svg xmlns="http://www.w3.org/2000/svg" width="26" height="26" viewBox="0 0 26 26"><g transform="translate(-199 -1074)"><rect width="26" height="26" transform="translate(199 1074)" fill="#52bb7f"/><g transform="translate(205 1080)"><path d="M14.817,7.218a7.286,7.286,0,0,1-10.79,6.32L0,14.817l1.313-3.872A7.142,7.142,0,0,1,.269,7.218a7.274,7.274,0,0,1,14.548,0ZM7.543,1.149A6.1,6.1,0,0,0,1.428,7.218a6,6,0,0,0,1.165,3.558l-.764,2.254,2.35-.747a6.121,6.121,0,0,0,9.48-5.064A6.1,6.1,0,0,0,7.543,1.149Zm3.673,7.73c-.045-.074-.164-.118-.342-.206S9.819,8.157,9.656,8.1s-.283-.089-.4.088-.46.575-.565.693-.208.133-.386.045A4.88,4.88,0,0,1,6.87,8.047a5.334,5.334,0,0,1-.992-1.225c-.1-.177-.011-.273.078-.361s.178-.207.268-.31a1.186,1.186,0,0,0,.178-.3.322.322,0,0,0-.015-.31c-.044-.088-.4-.959-.55-1.313s-.3-.3-.4-.3-.223-.015-.342-.015a.658.658,0,0,0-.476.221A1.978,1.978,0,0,0,4,5.62a3.423,3.423,0,0,0,.728,1.83A7.288,7.288,0,0,0,7.769,10.12c1.813.708,1.813.472,2.14.442a1.8,1.8,0,0,0,1.2-.841A1.475,1.475,0,0,0,11.216,8.88Z" fill="#fff"/></g></g></svg>